<svg width="13" height="15" viewBox="0 0 13 15" fill="none" xmlns="http://www.w3.org/2000/svg">
<path d="M2.6893 0.833008C2.82792 0.833011 2.9631 0.876227 3.07601 0.956642C3.18893 1.03706 3.27397 1.15067 3.3193 1.28167L5.1813 6.66101C5.23773 6.82774 5.22593 7.01003 5.14847 7.1681C5.07101 7.32617 4.93417 7.44719 4.76782 7.50475C4.60147 7.56231 4.41911 7.55175 4.26052 7.47536C4.10193 7.39897 3.97999 7.26296 3.9213 7.09701L3.64663 6.30367H1.7313L1.4573 7.09701C1.39861 7.26296 1.27667 7.39897 1.11808 7.47536C0.959486 7.55175 0.777122 7.56231 0.610772 7.50475C0.444422 7.44719 0.307589 7.32617 0.230128 7.1681C0.152667 7.01003 0.140865 6.82774 0.197298 6.66101L2.0593 1.28101C2.10474 1.15013 2.18983 1.03666 2.30273 0.956371C2.41564 0.876082 2.55076 0.832963 2.6893 0.833008ZM2.6893 3.53767L2.1933 4.97101H3.1853L2.6893 3.53767ZM1.16596 8.16634C0.989154 8.16634 0.819584 8.23658 0.69456 8.3616C0.569536 8.48663 0.499298 8.6562 0.499298 8.83301C0.499298 9.00982 0.569536 9.17939 0.69456 9.30441C0.819584 9.42944 0.989154 9.49967 1.16596 9.49967H3.3333L0.633298 13.0997C0.559013 13.1987 0.513777 13.3165 0.502658 13.4398C0.49154 13.5631 0.514978 13.6871 0.570346 13.7978C0.625715 13.9086 0.710827 14.0017 0.816144 14.0668C0.921461 14.1319 1.04282 14.1663 1.16663 14.1663H4.66663C4.84344 14.1663 5.01301 14.0961 5.13804 13.9711C5.26306 13.8461 5.3333 13.6765 5.3333 13.4997C5.3333 13.3229 5.26306 13.1533 5.13804 13.0283C5.01301 12.9032 4.84344 12.833 4.66663 12.833H2.49996L5.19997 9.23301C5.27425 9.13396 5.31949 9.01619 5.3306 8.89288C5.34172 8.76957 5.31828 8.6456 5.26292 8.53487C5.20755 8.42413 5.12244 8.331 5.01712 8.26591C4.9118 8.20082 4.79044 8.16634 4.66663 8.16634H1.16596ZM6.1953 10.3617C6.32032 10.2367 6.48986 10.1665 6.66663 10.1665C6.84341 10.1665 7.01295 10.2367 7.13796 10.3617L8.66596 11.8897V1.49967C8.66596 1.32286 8.7362 1.15329 8.86123 1.02827C8.98625 0.903246 9.15582 0.833008 9.33263 0.833008C9.50944 0.833008 9.67901 0.903246 9.80404 1.02827C9.92906 1.15329 9.9993 1.32286 9.9993 1.49967V11.8903L11.5286 10.3617C11.6544 10.2402 11.8228 10.173 11.9976 10.1746C12.1724 10.1761 12.3396 10.2462 12.4632 10.3698C12.5868 10.4934 12.6569 10.6606 12.6584 10.8354C12.6599 11.0102 12.5927 11.1786 12.4713 11.3043L9.80463 13.971C9.67961 14.096 9.51007 14.1662 9.3333 14.1662C9.15652 14.1662 8.98698 14.096 8.86196 13.971L6.1953 11.3043C6.07032 11.1793 6.00011 11.0098 6.00011 10.833C6.00011 10.6562 6.07032 10.4867 6.1953 10.3617Z" fill="#091E42"/>
</svg>
