<svg width="20" height="18" viewBox="0 0 20 18" fill="none" xmlns="http://www.w3.org/2000/svg">
<path fill-rule="evenodd" clip-rule="evenodd" d="M9.02983 0.96995C9.17028 1.11058 9.24917 1.3012 9.24917 1.49995C9.24917 1.6987 9.17028 1.88933 9.02983 2.02995L2.80983 8.24995H18.9998C19.1987 8.24995 19.3895 8.32897 19.5302 8.46962C19.6708 8.61027 19.7498 8.80104 19.7498 8.99995C19.7498 9.19886 19.6708 9.38963 19.5302 9.53028C19.3895 9.67093 19.1987 9.74995 18.9998 9.74995H2.80983L9.02983 15.9699C9.10351 16.0386 9.16262 16.1214 9.20361 16.2134C9.2446 16.3054 9.26664 16.4047 9.26842 16.5054C9.2702 16.6061 9.25167 16.7062 9.21395 16.7995C9.17623 16.8929 9.12008 16.9778 9.04887 17.049C8.97765 17.1202 8.89281 17.1764 8.79943 17.2141C8.70604 17.2518 8.60601 17.2703 8.50531 17.2685C8.4046 17.2668 8.30529 17.2447 8.21329 17.2037C8.12129 17.1627 8.03849 17.1036 7.96983 17.03L0.469828 9.52995C0.329378 9.38933 0.250488 9.1987 0.250488 8.99995C0.250488 8.8012 0.329378 8.61058 0.469828 8.46995L7.96983 0.96995C8.11045 0.8295 8.30108 0.75061 8.49983 0.75061C8.69858 0.75061 8.8892 0.8295 9.02983 0.96995Z" fill="#091E42"/>
</svg>
