<svg width="20" height="20" viewBox="0 0 20 20" fill="none" xmlns="http://www.w3.org/2000/svg">
<path d="M19.7209 10.752C19.8565 9.02997 19.5303 7.30294 18.7759 5.749C17.5273 6.93539 16.0513 7.85658 14.4369 8.457C14.5667 10.0503 14.4948 11.6537 14.2229 13.229C16.1874 12.7342 18.0488 11.8956 19.7209 10.752ZM12.6339 13.55C12.9533 12.023 13.065 10.4599 12.9659 8.903C12.0139 9.13 11.0209 9.25 9.99994 9.25C8.97894 9.25 7.98594 9.13 7.03394 8.903C6.93719 10.4599 7.04884 12.0227 7.36594 13.55C9.11175 13.8176 10.8881 13.8176 12.6339 13.55ZM7.77194 15.119C9.25212 15.2941 10.7478 15.2941 12.2279 15.119C11.7192 16.7566 10.9682 18.3088 9.99994 19.724C9.03162 18.3088 8.28063 16.7566 7.77194 15.119ZM5.77694 13.23C5.50358 11.6542 5.43167 10.05 5.56294 8.456C3.94823 7.85572 2.47186 6.93453 1.22294 5.748C0.468758 7.30233 0.142887 9.02973 0.278943 10.752C1.95108 11.8956 3.81247 12.7352 5.77694 13.23ZM19.3559 12.752C18.851 14.4629 17.8871 16.0029 16.5688 17.2047C15.2505 18.4065 13.6282 19.2241 11.8779 19.569C12.7545 18.0953 13.4234 16.5076 13.8659 14.851C15.7954 14.4466 17.6485 13.7384 19.3559 12.753V12.752ZM0.643943 12.752C2.32594 13.723 4.17394 14.44 6.13394 14.851C6.57645 16.5076 7.24542 18.0953 8.12194 19.569C6.37183 19.2242 4.74959 18.4067 3.43129 17.2051C2.11298 16.0035 1.14899 14.4638 0.643943 12.753V12.752ZM11.8779 0.430001C14.3557 0.917009 16.548 2.34583 17.9939 4.416C16.9266 5.49438 15.6525 6.34608 14.2479 6.92C13.8695 4.62782 13.0657 2.42664 11.8779 0.430001ZM9.99994 0.276001C11.4594 2.4081 12.4182 4.84236 12.8049 7.397C11.9079 7.627 10.9679 7.75 9.99994 7.75C9.03194 7.75 8.09194 7.628 7.19494 7.397C7.58163 4.84235 8.5405 2.40808 9.99994 0.276001ZM8.12194 0.430001C6.93417 2.42663 6.13035 4.62781 5.75194 6.92C4.3474 6.3461 3.07325 5.4944 2.00594 4.416C3.45198 2.34613 5.64433 0.916662 8.12194 0.430001Z" fill="#091E42"/>
</svg>
