<svg width="17" height="18" viewBox="0 0 17 18" fill="none" xmlns="http://www.w3.org/2000/svg">
<path fill-rule="evenodd" clip-rule="evenodd" d="M16.4599 1.09043C16.6004 1.23106 16.6793 1.42168 16.6793 1.62043C16.6793 1.81918 16.6004 2.00981 16.4599 2.15043L2.73993 15.8704H12.1799C12.3788 15.8704 12.5696 15.9495 12.7103 16.0901C12.8509 16.2308 12.9299 16.4215 12.9299 16.6204C12.9299 16.8193 12.8509 17.0101 12.7103 17.1508C12.5696 17.2914 12.3788 17.3704 12.1799 17.3704H0.929932C0.731019 17.3704 0.540254 17.2914 0.399601 17.1508C0.258949 17.0101 0.179932 16.8193 0.179932 16.6204V5.37043C0.179932 5.17152 0.258949 4.98076 0.399601 4.8401C0.540254 4.69945 0.731019 4.62043 0.929932 4.62043C1.12884 4.62043 1.31961 4.69945 1.46026 4.8401C1.60091 4.98076 1.67993 5.17152 1.67993 5.37043V14.8104L15.3999 1.09043C15.5406 0.949983 15.7312 0.871094 15.9299 0.871094C16.1287 0.871094 16.3193 0.949983 16.4599 1.09043Z" fill="#225816"/>
</svg>
