<svg width="14" height="11" viewBox="0 0 14 11" fill="none" xmlns="http://www.w3.org/2000/svg">
<path d="M3.19196 0.361632L0.528624 3.0283L0.472624 3.09163C0.373209 3.21998 0.324044 3.38019 0.334354 3.54221C0.344665 3.70423 0.413741 3.85692 0.528624 3.97163L0.591958 4.02697C0.720305 4.12638 0.880519 4.17555 1.04254 4.16524C1.20456 4.15493 1.35725 4.08585 1.47196 3.97097L2.99996 2.43963V10.1663L3.00462 10.2443C3.02358 10.4066 3.10147 10.5563 3.22351 10.6649C3.34555 10.7735 3.50323 10.8336 3.66662 10.8336L3.74462 10.829C3.90691 10.8098 4.05651 10.7318 4.16504 10.6096C4.27356 10.4875 4.33343 10.3297 4.33329 10.1663V2.4443L5.86196 3.97097L5.92529 4.02697C6.0593 4.13184 6.22835 4.18151 6.39779 4.16578C6.56723 4.15005 6.72425 4.07012 6.83666 3.94236C6.94908 3.8146 7.00838 3.6487 7.00242 3.47863C6.99647 3.30856 6.9257 3.14721 6.80462 3.02763L4.13396 0.360965L4.07129 0.305632C3.94294 0.206217 3.78273 0.157052 3.62071 0.167362C3.45869 0.177673 3.30667 0.24675 3.19196 0.361632ZM10.3333 0.168299L10.2553 0.172966C10.0931 0.19207 9.94361 0.270027 9.8351 0.392051C9.7266 0.514074 9.66665 0.671677 9.66662 0.834965V8.55497L8.13796 7.0283L8.07462 6.9723C7.94057 6.86864 7.77206 6.81993 7.60337 6.83606C7.43469 6.85219 7.27847 6.93196 7.16648 7.05914C7.0545 7.18632 6.99515 7.35138 7.0005 7.52075C7.00585 7.69012 7.0755 7.8511 7.19529 7.97097L9.86462 10.6376L9.92729 10.6936C10.0556 10.793 10.2159 10.8422 10.3779 10.8319C10.5399 10.8216 10.6926 10.7525 10.8073 10.6376L13.4713 7.97097L13.5273 7.90763C13.6267 7.77928 13.6759 7.61907 13.6656 7.45705C13.6553 7.29503 13.5862 7.14234 13.4713 7.02763L13.408 6.9723C13.2796 6.87288 13.1194 6.82372 12.9574 6.83403C12.7954 6.84434 12.6427 6.91342 12.528 7.0283L11 8.55763V0.834965L10.9953 0.757632C10.9763 0.595344 10.8984 0.445667 10.7764 0.337025C10.6544 0.228382 10.4967 0.168339 10.3333 0.168299Z" fill="#091E42"/>
</svg>
