<svg width="17" height="18" viewBox="0 0 17 18" fill="none" xmlns="http://www.w3.org/2000/svg">
<path fill-rule="evenodd" clip-rule="evenodd" d="M4.6799 0.871094H15.9299C16.1288 0.871094 16.3196 0.950111 16.4602 1.09076C16.6009 1.23142 16.6799 1.42218 16.6799 1.62109V12.8711C16.6799 13.07 16.6009 13.2608 16.4602 13.4014C16.3196 13.5421 16.1288 13.6211 15.9299 13.6211C15.731 13.6211 15.5402 13.5421 15.3996 13.4014C15.2589 13.2608 15.1799 13.07 15.1799 12.8711V3.43109L1.4599 17.1511C1.31773 17.2836 1.12968 17.3557 0.935378 17.3523C0.741076 17.3488 0.555691 17.2701 0.418278 17.1327C0.280865 16.9953 0.202153 16.8099 0.198725 16.6156C0.195297 16.4213 0.26742 16.2333 0.3999 16.0911L14.1199 2.37109H4.6799C4.48099 2.37109 4.29022 2.29208 4.14957 2.15142C4.00892 2.01077 3.9299 1.82001 3.9299 1.62109C3.9299 1.42218 4.00892 1.23142 4.14957 1.09076C4.29022 0.950111 4.48099 0.871094 4.6799 0.871094Z" fill="#B12222"/>
</svg>
