<svg width="24" height="24" viewBox="0 0 24 24" fill="none" xmlns="http://www.w3.org/2000/svg">
<path d="M11.0001 17.4989C10.9984 16.2583 11.3535 15.0434 12.0231 13.9989H4.25305C3.95754 13.9988 3.6649 14.0569 3.39186 14.1699C3.11882 14.2829 2.87073 14.4487 2.66177 14.6576C2.45281 14.8666 2.28708 15.1147 2.17406 15.3877C2.06103 15.6608 2.00292 15.9534 2.00305 16.2489V17.1679C2.00305 17.7399 2.18305 18.2979 2.51405 18.7639C4.05605 20.9279 6.58005 21.9989 10.0001 21.9989C10.9321 21.9989 11.7971 21.9189 12.5921 21.7589C11.5642 20.5786 10.9987 19.066 11.0001 17.5009V17.4989ZM15.0001 7.00391C15.0001 5.67782 14.4733 4.40605 13.5356 3.46837C12.5979 2.53069 11.3261 2.00391 10.0001 2.00391C8.67397 2.00391 7.4022 2.53069 6.46452 3.46837C5.52684 4.40605 5.00005 5.67782 5.00005 7.00391C5.00005 8.32999 5.52684 9.60176 6.46452 10.5394C7.4022 11.4771 8.67397 12.0039 10.0001 12.0039C11.3261 12.0039 12.5979 11.4771 13.5356 10.5394C14.4733 9.60176 15.0001 8.32999 15.0001 7.00391Z" fill="#091E42"/>
<path d="M23 17.5C23 16.0413 22.4205 14.6424 21.3891 13.6109C20.3576 12.5795 18.9587 12 17.5 12C16.0413 12 14.6424 12.5795 13.6109 13.6109C12.5795 14.6424 12 16.0413 12 17.5C12 18.9587 12.5795 20.3576 13.6109 21.3891C14.6424 22.4205 16.0413 23 17.5 23C18.9587 23 20.3576 22.4205 21.3891 21.3891C22.4205 20.3576 23 18.9587 23 17.5ZM17.41 14.008L17.5 14L17.59 14.008C17.6899 14.0263 17.7819 14.0745 17.8537 14.1463C17.9255 14.2181 17.9737 14.3101 17.992 14.41L18 14.5V17H20.504L20.594 17.008C20.6939 17.0263 20.7859 17.0745 20.8577 17.1463C20.9295 17.2181 20.9777 17.3101 20.996 17.41L21.004 17.5L20.996 17.59C20.9777 17.6899 20.9295 17.7819 20.8577 17.8537C20.7859 17.9255 20.6939 17.9737 20.594 17.992L20.504 18H18V20.5L17.992 20.59C17.9737 20.6899 17.9255 20.7819 17.8537 20.8537C17.7819 20.9255 17.6899 20.9737 17.59 20.992L17.5 21L17.41 20.992C17.3101 20.9737 17.2181 20.9255 17.1463 20.8537C17.0745 20.7819 17.0263 20.6899 17.008 20.59L17 20.5V18H14.504L14.414 17.992C14.3141 17.9737 14.2221 17.9255 14.1503 17.8537C14.0785 17.7819 14.0303 17.6899 14.012 17.59L14.004 17.5L14.012 17.41C14.0303 17.3101 14.0785 17.2181 14.1503 17.1463C14.2221 17.0745 14.3141 17.0263 14.414 17.008L14.504 17H17V14.5L17.008 14.41C17.0263 14.3101 17.0745 14.2181 17.1463 14.1463C17.2181 14.0745 17.3101 14.0263 17.41 14.008Z" fill="#091E42"/>
</svg>
