<svg width="16" height="20" viewBox="0 0 16 20" fill="none" xmlns="http://www.w3.org/2000/svg">
<path d="M8.707 0.293031C8.51947 0.105559 8.26516 0.000244141 8 0.000244141C7.73484 0.000244141 7.48053 0.105559 7.293 0.293031L2.293 5.29303C2.11084 5.48163 2.01005 5.73423 2.01233 5.99643C2.0146 6.25863 2.11977 6.50944 2.30518 6.69485C2.49059 6.88026 2.7414 6.98543 3.0036 6.9877C3.2658 6.98998 3.5184 6.88919 3.707 6.70703L7 3.41403V16C7 16.2652 7.10536 16.5196 7.29289 16.7071C7.48043 16.8947 7.73478 17 8 17C8.26522 17 8.51957 16.8947 8.70711 16.7071C8.89464 16.5196 9 16.2652 9 16V3.41403L12.293 6.70703C12.3852 6.80254 12.4956 6.87872 12.6176 6.93113C12.7396 6.98354 12.8708 7.01113 13.0036 7.01228C13.1364 7.01344 13.2681 6.98813 13.391 6.93785C13.5138 6.88757 13.6255 6.81332 13.7194 6.71943C13.8133 6.62553 13.8875 6.51388 13.9378 6.39098C13.9881 6.26809 14.0134 6.13641 14.0123 6.00363C14.0111 5.87085 13.9835 5.73963 13.9311 5.61763C13.8787 5.49562 13.8025 5.38528 13.707 5.29303L8.707 0.293031ZM1.25 18.5C1.05109 18.5 0.860322 18.579 0.71967 18.7197C0.579018 18.8604 0.5 19.0511 0.5 19.25C0.5 19.4489 0.579018 19.6397 0.71967 19.7804C0.860322 19.921 1.05109 20 1.25 20H14.75C14.9489 20 15.1397 19.921 15.2803 19.7804C15.421 19.6397 15.5 19.4489 15.5 19.25C15.5 19.0511 15.421 18.8604 15.2803 18.7197C15.1397 18.579 14.9489 18.5 14.75 18.5H1.25Z" fill="#091E42"/>
</svg>
