<svg width="18" height="19" viewBox="0 0 18 19" fill="none" xmlns="http://www.w3.org/2000/svg">
<path d="M17 5V16.5C17 17.163 16.7366 17.7989 16.2678 18.2678C15.7989 18.7366 15.163 19 14.5 19H3.5C2.83696 19 2.20107 18.7366 1.73223 18.2678C1.26339 17.7989 1 17.163 1 16.5V5H17ZM11 8.5H7C6.80109 8.5 6.61032 8.57902 6.46967 8.71967C6.32902 8.86032 6.25 9.05109 6.25 9.25C6.25 9.44891 6.32902 9.63968 6.46967 9.78033C6.61032 9.92098 6.80109 10 7 10H11C11.1989 10 11.3897 9.92098 11.5303 9.78033C11.671 9.63968 11.75 9.44891 11.75 9.25C11.75 9.05109 11.671 8.86032 11.5303 8.71967C11.3897 8.57902 11.1989 8.5 11 8.5ZM17 0C17.2652 0 17.5196 0.105357 17.7071 0.292893C17.8946 0.48043 18 0.734784 18 1V3C18 3.26522 17.8946 3.51957 17.7071 3.70711C17.5196 3.89464 17.2652 4 17 4H1C0.734784 4 0.48043 3.89464 0.292893 3.70711C0.105357 3.51957 0 3.26522 0 3V1C0 0.734784 0.105357 0.48043 0.292893 0.292893C0.48043 0.105357 0.734784 0 1 0H17Z" fill="#091E42"/>
</svg>
